<?xml version="1.0" standalone="no"?>
<!DOCTYPE svg PUBLIC "-//W3C//DTD SVG 20010904//EN"
 "http://www.w3.org/TR/2001/REC-SVG-20010904/DTD/svg10.dtd">
<svg version="1.0" xmlns="http://www.w3.org/2000/svg"
 width="2700.000000pt" height="2700.000000pt" viewBox="0 0 2700.000000 2700.000000"
 preserveAspectRatio="xMidYMid meet">

<g transform="translate(0.000000,2700.000000) scale(0.100000,-0.100000)"
fill="#000000" stroke="none">
<path d="M15884 24421 c-55 -34 -79 -78 -79 -147 0 -51 4 -66 29 -98 16 -21
48 -46 72 -56 38 -17 44 -23 44 -50 0 -29 -1 -30 -47 -30 -140 -1 -220 -158
-137 -267 45 -60 142 -90 197 -62 32 17 77 60 93 91 32 62 5 164 -54 207 -25
18 -28 25 -23 55 5 30 14 39 60 63 66 34 95 82 94 155 -1 60 -36 118 -86 141
-47 23 -124 22 -163 -2z"/>
<path d="M17741 24414 c-28 -35 -26 -69 4 -99 30 -30 64 -32 99 -4 33 26 36
79 6 109 -30 30 -83 27 -109 -6z"/>
<path d="M17790 24224 c0 -8 -4 -12 -10 -9 -5 3 -10 3 -11 -2 -6 -69 -5 -73
28 -73 17 0 33 -5 35 -12 3 -7 13 -5 31 7 22 14 25 20 16 31 -6 8 -17 14 -24
14 -7 0 -18 14 -24 30 -10 31 -41 42 -41 14z"/>
<path d="M17810 24055 c0 -8 7 -15 15 -15 8 0 15 7 15 15 0 8 -7 15 -15 15 -8
0 -15 -7 -15 -15z"/>
<path d="M17833 23903 c-18 -7 -16 -33 2 -33 8 0 15 9 15 20 0 11 -1 20 -2 19
-2 0 -9 -3 -15 -6z"/>
<path d="M18691 23874 c-28 -35 -26 -69 4 -99 53 -54 132 -12 126 68 -4 56
-93 77 -130 31z"/>
<path d="M18235 23836 c-72 -31 -115 -122 -94 -198 31 -118 174 -161 270 -81
142 120 -5 353 -176 279z"/>
<path d="M17830 23725 c0 -8 7 -15 15 -15 8 0 15 7 15 15 0 8 -7 15 -15 15 -8
0 -15 -7 -15 -15z"/>
<path d="M17850 23555 c0 -8 7 -15 15 -15 8 0 15 7 15 15 0 8 -7 15 -15 15 -8
0 -15 -7 -15 -15z"/>
<path d="M17860 23389 c0 -24 23 -21 28 4 2 10 -3 17 -12 17 -10 0 -16 -9 -16
-21z"/>
<path d="M19072 23297 c-48 -50 -15 -127 53 -127 45 0 75 29 75 73 0 68 -83
103 -128 54z"/>
<path d="M17608 23291 c-80 -26 -123 -91 -116 -176 7 -88 60 -140 157 -154 41
-5 46 -9 49 -33 3 -27 4 -28 32 -13 16 8 35 12 43 9 19 -7 52 37 35 47 -6 4
-16 5 -22 3 -6 -2 -18 0 -26 6 -13 8 -13 11 2 22 30 24 58 82 58 122 0 53 -32
116 -72 143 -38 25 -101 36 -140 24z"/>
<path d="M17870 23225 c0 -8 7 -15 15 -15 8 0 15 7 15 15 0 8 -7 15 -15 15 -8
0 -15 -7 -15 -15z"/>
<path d="M16696 23177 c-43 -24 -76 -76 -76 -120 l0 -28 -32 17 c-45 24 -112
22 -146 -3 -88 -65 -96 -169 -18 -242 50 -47 163 -38 205 15 18 23 49 24 77 3
13 -11 24 -1 24 20 0 22 39 56 72 64 14 4 41 19 59 34 21 18 34 24 37 15 2 -6
12 -12 22 -12 10 0 21 -8 25 -17 5 -15 9 -11 22 17 14 34 15 34 24 13 4 -13
13 -23 19 -23 12 0 14 23 3 34 -4 4 -8 13 -9 19 0 7 -2 20 -2 30 -2 18 -28 24
-34 8 -1 -5 -15 -13 -30 -16 -26 -7 -27 -6 -21 28 8 52 -26 117 -76 145 -49
28 -96 28 -145 -1z m10 -262 c10 -8 14 -15 7 -15 -6 0 -18 -3 -27 -6 -12 -4
-16 0 -16 15 0 25 9 26 36 6z"/>
<path d="M17890 23055 c0 -8 7 -15 15 -15 8 0 15 7 15 15 0 8 -7 15 -15 15 -8
0 -15 -7 -15 -15z"/>
<path d="M17900 22895 c0 -8 7 -15 15 -15 8 0 15 7 15 15 0 8 -7 15 -15 15 -8
0 -15 -7 -15 -15z"/>
<path d="M17146 22885 c-2 -7 1 -16 9 -19 7 -2 16 1 19 9 2 7 -1 16 -9 19 -7
2 -16 -1 -19 -9z"/>
<path d="M17772 22858 c6 -18 28 -21 28 -4 0 9 -7 16 -16 16 -9 0 -14 -5 -12
-12z"/>
<path d="M16780 22847 c0 -8 7 -18 16 -21 11 -4 14 -1 12 11 -4 21 -28 30 -28
10z"/>
<path d="M17300 22815 c0 -9 5 -15 11 -13 6 2 11 8 11 13 0 5 -5 11 -11 13 -6
2 -11 -4 -11 -13z"/>
<path d="M16942 22803 c2 -9 9 -18 16 -21 18 -6 15 25 -4 32 -11 4 -14 1 -12
-11z"/>
<path d="M17102 22758 c6 -18 28 -21 28 -4 0 9 -7 16 -16 16 -9 0 -14 -5 -12
-12z"/>
<path d="M17452 22748 c6 -18 28 -21 28 -4 0 9 -7 16 -16 16 -9 0 -14 -5 -12
-12z"/>
<path d="M17910 22720 c0 -23 -28 -27 -36 -6 -3 8 -12 12 -19 10 -8 -3 -11
-12 -8 -20 7 -19 -55 -84 -73 -77 -19 7 -36 -39 -20 -52 7 -5 16 -32 20 -58 8
-52 48 -107 96 -132 26 -13 27 -17 19 -57 -14 -74 -10 -99 8 -45 9 26 22 47
29 47 7 0 15 8 19 19 3 11 19 21 37 25 43 8 92 48 112 89 47 101 -13 221 -123
243 -17 4 -31 13 -31 20 0 8 -7 14 -15 14 -8 0 -15 -9 -15 -20z"/>
<path d="M17260 22715 c0 -8 7 -15 15 -15 8 0 15 7 15 15 0 8 -7 15 -15 15 -8
0 -15 -7 -15 -15z"/>
<path d="M17606 22693 c-10 -10 -7 -21 8 -26 8 -3 17 0 20 8 5 14 -17 28 -28
18z"/>
<path d="M19465 22675 c-16 -15 -25 -36 -25 -55 0 -39 39 -80 75 -80 30 0 85
49 85 75 0 21 -19 57 -39 72 -26 20 -70 15 -96 -12z"/>
<path d="M17425 22679 c-10 -15 1 -23 20 -15 9 3 13 10 10 16 -8 13 -22 13
-30 -1z"/>
<path d="M17586 22635 c-2 -7 1 -16 9 -19 7 -2 16 1 19 9 2 7 -1 16 -9 19 -7
2 -16 -1 -19 -9z"/>
<path d="M14575 22505 c-30 -30 -32 -64 -4 -99 27 -34 77 -36 107 -3 67 72
-34 172 -103 102z"/>
<path d="M18369 22387 c-53 -36 -79 -82 -79 -141 0 -99 68 -168 165 -168 30 0
48 -5 54 -15 10 -19 32 -8 25 12 -6 16 40 50 56 40 18 -11 32 5 19 21 -9 11
-9 21 0 40 19 43 14 117 -12 155 -36 53 -82 79 -142 79 -38 0 -61 -6 -86 -23z"/>
<path d="M17897 22189 c-4 -14 0 -19 14 -19 22 0 26 25 5 33 -8 3 -16 -2 -19
-14z"/>
<path d="M17890 22020 c0 -11 7 -20 15 -20 8 0 15 9 15 20 0 11 -7 20 -15 20
-8 0 -15 -9 -15 -20z"/>
<path d="M18717 22026 c-6 -15 1 -26 15 -26 11 0 10 27 -1 34 -5 3 -11 0 -14
-8z"/>
<path d="M19312 21964 c-97 -50 -108 -193 -20 -257 40 -30 124 -34 166 -8 90
57 97 191 12 251 -42 30 -114 36 -158 14z"/>
<path d="M18570 21911 c0 -14 5 -19 15 -14 17 6 15 25 -3 31 -7 2 -12 -5 -12
-17z"/>
<path d="M18845 21920 c-4 -6 -3 -16 3 -22 6 -6 12 -6 17 2 4 6 3 16 -3 22 -6
6 -12 6 -17 -2z"/>
<path d="M17870 21854 c0 -9 7 -14 17 -12 25 5 28 28 4 28 -12 0 -21 -6 -21
-16z"/>
<path d="M18970 21805 c0 -9 5 -15 11 -13 6 2 11 8 11 13 0 5 -5 11 -11 13 -6
2 -11 -4 -11 -13z"/>
<path d="M18626 21755 c4 -9 11 -14 16 -13 15 5 11 23 -6 26 -11 2 -14 -2 -10
-13z"/>
<path d="M17860 21690 c0 -11 7 -20 15 -20 8 0 15 6 15 14 0 8 -7 16 -15 20
-10 4 -15 -1 -15 -14z"/>
<path d="M19102 21699 c2 -6 8 -10 13 -10 5 0 11 4 13 10 2 6 -4 11 -13 11 -9
0 -15 -5 -13 -11z"/>
<path d="M19477 21684 c-8 -8 1 -24 14 -24 5 0 9 7 9 15 0 15 -12 20 -23 9z"/>
<path d="M8250 21450 l0 -210 155 0 155 0 0 25 0 25 -130 0 -130 0 0 70 0 69
118 3 c112 3 117 4 120 25 3 22 1 22 -115 25 l-118 3 -3 63 -3 62 126 0 125 0
0 25 0 25 -150 0 -150 0 0 -210z"/>
<path d="M8640 21503 c0 -179 9 -213 69 -247 49 -28 145 -27 193 2 57 35 68
77 68 252 l0 150 -30 0 -30 0 0 -149 c0 -82 -4 -161 -10 -176 -22 -57 -121
-69 -177 -20 l-28 23 -4 161 -3 161 -24 0 -24 0 0 -157z"/>
<path d="M9220 21450 l0 -210 25 0 25 0 0 210 0 210 -25 0 -25 0 0 -210z"/>
<path d="M10310 21450 l0 -210 25 0 25 0 0 210 0 210 -25 0 -25 0 0 -210z"/>
<path d="M19370 21645 c0 -8 7 -15 15 -15 8 0 15 7 15 15 0 8 -7 15 -15 15 -8
0 -15 -7 -15 -15z"/>
<path d="M18687 21614 c-10 -11 4 -33 18 -28 8 3 11 12 8 20 -5 15 -16 18 -26
8z"/>
<path d="M14784 21591 c-63 -29 -89 -72 -89 -152 0 -56 4 -71 27 -101 18 -23
45 -43 75 -54 27 -10 52 -24 56 -31 11 -18 38 -17 31 1 -4 9 6 18 29 25 35 12
76 49 96 88 6 12 11 46 11 76 0 68 -28 113 -90 145 -54 27 -92 28 -146 3z"/>
<path d="M19224 21599 c-8 -14 18 -31 30 -19 9 9 0 30 -14 30 -5 0 -12 -5 -16
-11z"/>
<path d="M19574 21547 c-8 -21 2 -35 16 -21 5 5 6 15 0 24 -8 12 -10 12 -16
-3z"/>
<path d="M9390 21512 c-46 -45 -60 -109 -40 -175 32 -107 169 -139 243 -57 33
37 34 47 6 55 -17 6 -27 0 -46 -24 -20 -25 -32 -31 -62 -31 -45 0 -91 39 -91
76 0 24 1 24 110 24 l110 0 0 35 c0 44 -21 86 -56 114 -20 16 -41 21 -82 21
-50 0 -58 -3 -92 -38z m141 -15 c18 -13 39 -50 39 -66 0 -7 -32 -11 -85 -11
-89 0 -95 3 -73 43 17 32 39 46 73 46 17 0 37 -5 46 -12z"/>
<path d="M9662 21538 c3 -7 29 -77 58 -156 51 -136 55 -143 79 -140 24 3 31
17 83 153 45 119 53 151 42 153 -30 7 -42 -8 -74 -100 -18 -51 -37 -104 -43
-118 -8 -22 -14 -11 -51 95 -40 112 -44 120 -71 123 -20 3 -26 0 -23 -10z"/>
<path d="M10010 21512 c-46 -45 -60 -109 -40 -175 32 -107 169 -139 243 -57
33 37 34 47 6 55 -17 6 -27 0 -46 -24 -20 -25 -32 -31 -62 -31 -45 0 -91 39
-91 76 0 24 1 24 110 24 l110 0 0 35 c0 44 -21 86 -56 114 -20 16 -41 21 -82
21 -50 0 -58 -3 -92 -38z m141 -15 c18 -13 39 -50 39 -66 0 -7 -32 -11 -85
-11 -89 0 -95 3 -73 43 17 32 39 46 73 46 17 0 37 -5 46 -12z"/>
<path d="M17850 21520 c0 -11 7 -20 15 -20 8 0 15 9 15 20 0 11 -7 20 -15 20
-8 0 -15 -9 -15 -20z"/>
<path d="M19357 21494 c-9 -10 12 -34 30 -34 19 0 12 34 -8 38 -8 1 -18 0 -22
-4z"/>
<path d="M18746 21445 c4 -9 11 -14 16 -13 15 5 11 23 -6 26 -11 2 -14 -2 -10
-13z"/>
<path d="M19665 21410 c-4 -6 -3 -16 3 -22 6 -6 12 -6 17 2 4 6 3 16 -3 22 -6
6 -12 6 -17 -2z"/>
<path d="M19485 21390 c-4 -6 -3 -16 3 -22 6 -6 12 -6 17 2 4 6 3 16 -3 22 -6
6 -12 6 -17 -2z"/>
<path d="M17840 21355 c0 -8 7 -15 15 -15 8 0 15 7 15 15 0 8 -7 15 -15 15 -8
0 -15 -7 -15 -15z"/>
<path d="M19380 21305 c0 -8 7 -15 15 -15 8 0 15 7 15 15 0 8 -7 15 -15 15 -8
0 -15 -7 -15 -15z"/>
<path d="M18813 21302 c-7 -4 -9 -13 -5 -19 4 -7 13 -9 19 -5 7 4 9 13 5 19
-4 7 -13 9 -19 5z"/>
<path d="M19616 21283 c-11 -11 -6 -23 9 -23 8 0 15 4 15 9 0 13 -16 22 -24
14z"/>
<path d="M19755 21271 c-7 -12 12 -24 25 -16 11 7 4 25 -10 25 -5 0 -11 -4
-15 -9z"/>
<path d="M19854 21210 c-7 -6 -35 -17 -64 -23 l-53 -12 -2 -43 c-3 -45 8 -61
29 -43 7 6 29 8 51 4 27 -4 36 -3 31 5 -4 7 -2 12 3 12 15 0 14 -5 -9 -42 -11
-18 -20 -47 -20 -64 0 -42 37 -95 82 -117 98 -48 208 62 164 166 -22 54 -68
79 -134 73 -49 -4 -52 -3 -47 15 4 11 2 25 -3 32 -5 7 -11 20 -13 30 -3 14 -7
15 -15 7z"/>
<path d="M17820 21190 c0 -11 6 -20 14 -20 20 0 28 27 10 34 -23 9 -24 8 -24
-14z"/>
<path d="M19380 21145 c0 -8 7 -15 15 -15 8 0 15 7 15 15 0 8 -7 15 -15 15 -8
0 -15 -7 -15 -15z"/>
<path d="M18862 21138 c3 -7 12 -14 21 -16 12 -2 15 1 11 12 -7 19 -38 22 -32
4z"/>
<path d="M14870 21085 c0 -8 7 -15 15 -15 8 0 15 7 15 15 0 8 -7 15 -15 15 -8
0 -15 -7 -15 -15z"/>
<path d="M17810 21026 c0 -8 7 -16 15 -20 10 -4 15 1 15 14 0 11 -7 20 -15 20
-8 0 -15 -6 -15 -14z"/>
<path d="M18930 20990 c-10 -6 -11 -13 -5 -19 13 -13 36 1 27 16 -5 8 -13 9
-22 3z"/>
<path d="M19390 20975 c0 -8 7 -15 15 -15 8 0 15 7 15 15 0 8 -7 15 -15 15 -8
0 -15 -7 -15 -15z"/>
<path d="M14887 20933 c-13 -12 -7 -33 8 -33 8 0 15 9 15 20 0 20 -11 26 -23
13z"/>
<path d="M17800 20855 c0 -8 7 -15 15 -15 8 0 15 7 15 15 0 8 -7 15 -15 15 -8
0 -15 -7 -15 -15z"/>
<path d="M18987 20834 c-9 -10 2 -24 18 -24 9 0 12 6 9 15 -6 16 -17 19 -27 9z"/>
<path d="M19403 20823 c-18 -7 -16 -33 2 -33 8 0 15 9 15 20 0 11 -1 20 -2 19
-2 0 -9 -3 -15 -6z"/>
<path d="M19522 20813 c-117 -58 -113 -229 8 -277 74 -29 159 7 192 82 56 126
-77 256 -200 195z"/>
<path d="M14890 20755 c0 -8 7 -15 15 -15 8 0 15 7 15 15 0 8 -7 15 -15 15 -8
0 -15 -7 -15 -15z"/>
<path d="M17790 20691 c0 -12 6 -21 16 -21 9 0 14 7 12 17 -5 25 -28 28 -28 4z"/>
<path d="M19050 20680 c-12 -7 -12 -12 -3 -21 15 -15 26 -7 21 15 -2 11 -7 13
-18 6z"/>
<path d="M19390 20645 c0 -8 7 -15 15 -15 8 0 15 7 15 15 0 8 -7 15 -15 15 -8
0 -15 -7 -15 -15z"/>
<path d="M14906 20586 c7 -19 38 -22 32 -3 -3 6 -12 13 -21 15 -12 2 -15 -1
-11 -12z"/>
<path d="M17770 20525 c0 -8 6 -15 14 -15 8 0 16 7 20 15 4 10 -1 15 -14 15
-11 0 -20 -7 -20 -15z"/>
<path d="M19105 20520 c-8 -13 4 -32 16 -25 12 8 12 35 0 35 -6 0 -13 -4 -16
-10z"/>
<path d="M19400 20475 c0 -8 7 -15 15 -15 8 0 15 7 15 15 0 8 -7 15 -15 15 -8
0 -15 -7 -15 -15z"/>
<path d="M14920 20425 c0 -8 7 -15 15 -15 8 0 15 7 15 15 0 8 -7 15 -15 15 -8
0 -15 -7 -15 -15z"/>
<path d="M17760 20355 c0 -8 7 -15 15 -15 8 0 15 7 15 15 0 8 -7 15 -15 15 -8
0 -15 -7 -15 -15z"/>
<path d="M19162 20358 c6 -18 28 -21 28 -4 0 9 -7 16 -16 16 -9 0 -14 -5 -12
-12z"/>
<path d="M19413 20323 c-18 -7 -16 -33 2 -33 8 0 15 9 15 20 0 11 -1 20 -2 19
-2 0 -9 -3 -15 -6z"/>
<path d="M14898 20304 c-27 -14 -30 -44 -5 -44 6 0 21 -12 32 -26 19 -24 24
-25 42 -14 15 10 21 23 20 47 -1 29 -4 33 -28 33 -15 0 -29 4 -31 9 -1 5 -15
3 -30 -5z"/>
<path d="M19216 20212 c-2 -4 -1 -14 3 -20 10 -17 41 -4 34 14 -6 15 -29 19
-37 6z"/>
<path d="M17750 20196 c0 -8 7 -16 15 -20 10 -4 15 1 15 14 0 11 -7 20 -15 20
-8 0 -15 -6 -15 -14z"/>
<path d="M19400 20139 c0 -24 23 -21 28 4 2 10 -3 17 -12 17 -10 0 -16 -9 -16
-21z"/>
<path d="M14905 20125 c-40 -39 -27 -104 27 -126 35 -14 69 -2 94 35 48 75
-58 155 -121 91z"/>
<path d="M19280 20045 c0 -8 7 -15 15 -15 8 0 15 7 15 15 0 8 -7 15 -15 15 -8
0 -15 -7 -15 -15z"/>
<path d="M17740 20025 c0 -8 7 -15 15 -15 8 0 15 7 15 15 0 8 -7 15 -15 15 -8
0 -15 -7 -15 -15z"/>
<path d="M19120 20001 c-48 -26 -83 -93 -75 -146 14 -90 82 -143 172 -132 l48
5 1 -43 c3 -109 122 -186 227 -146 71 27 117 118 97 191 -13 47 -62 108 -95
116 -26 6 -37 33 -23 58 8 13 4 16 -26 16 -19 0 -36 6 -39 13 -3 9 -11 8 -32
-4 -28 -17 -29 -16 -49 14 -49 73 -134 97 -206 58z"/>
<path d="M19410 19975 c0 -8 7 -15 15 -15 8 0 15 7 15 15 0 8 -7 15 -15 15 -8
0 -15 -7 -15 -15z"/>
<path d="M17726 19873 c-12 -12 -6 -33 9 -33 8 0 15 6 15 14 0 17 -14 28 -24
19z"/>
<path d="M17710 19695 c0 -8 7 -15 15 -15 8 0 15 7 15 15 0 8 -7 15 -15 15 -8
0 -15 -7 -15 -15z"/>
<path d="M17700 19525 c0 -8 7 -15 15 -15 8 0 15 7 15 15 0 8 -7 15 -15 15 -8
0 -15 -7 -15 -15z"/>
<path d="M18662 19520 c-21 -13 -41 -38 -54 -68 -19 -41 -20 -52 -9 -92 7 -24
19 -53 28 -62 8 -9 13 -23 10 -30 -3 -8 5 -14 22 -15 14 -1 44 -5 67 -8 54 -9
104 13 140 60 50 66 31 173 -39 215 -43 27 -121 26 -165 0z"/>
<path d="M17686 19364 c-9 -23 -8 -24 14 -24 13 0 20 7 20 20 0 24 -25 27 -34
4z"/>
<path d="M15800 19233 c-42 -16 -90 -82 -90 -123 0 -37 32 -91 64 -111 84 -51
196 14 196 113 0 30 -33 83 -63 103 -28 18 -84 28 -107 18z"/>
<path d="M17670 19195 c0 -8 7 -15 15 -15 8 0 15 7 15 15 0 8 -7 15 -15 15 -8
0 -15 -7 -15 -15z"/>
<path d="M17014 19040 c-32 -13 -84 -78 -86 -108 -5 -98 25 -149 107 -178 35
-13 95 -2 131 24 29 21 64 89 64 124 0 41 -42 109 -80 129 -36 20 -100 24
-136 9z"/>
<path d="M17660 19031 c0 -12 6 -21 16 -21 9 0 14 7 12 17 -5 25 -28 28 -28 4z"/>
<path d="M17650 18865 c0 -8 7 -15 15 -15 8 0 15 7 15 15 0 8 -7 15 -15 15 -8
0 -15 -7 -15 -15z"/>
<path d="M15086 18822 c-65 -45 -88 -117 -57 -186 44 -101 163 -121 241 -41
33 34 35 41 35 100 0 61 -2 67 -37 102 -33 32 -44 37 -95 40 -45 3 -64 0 -87
-15z"/>
<path d="M17604 18827 c-23 -13 -21 -37 2 -37 7 0 20 -13 29 -30 13 -24 19
-28 37 -21 14 5 25 20 29 40 6 29 4 32 -22 38 -16 3 -29 9 -29 14 0 12 -21 11
-46 -4z"/>
<path d="M17596 18649 c-54 -43 -23 -129 47 -129 69 0 101 77 52 125 -30 30
-64 32 -99 4z"/>
<path d="M17193 17734 c-7 -12 -8 -26 -3 -34 13 -21 22 -7 18 27 -3 27 -4 27
-15 7z"/>
<path d="M17260 17615 c-11 -13 -10 -14 4 -9 9 3 16 10 16 15 0 13 -6 11 -20
-6z"/>
<path d="M21850 16310 l0 -210 155 0 155 0 0 25 0 25 -125 0 -125 0 0 70 0 70
115 0 115 0 0 25 0 25 -115 0 -115 0 0 65 0 65 120 0 120 0 0 25 0 25 -150 0
-150 0 0 -210z"/>
<path d="M22430 16443 c0 -75 0 -76 -20 -58 -10 9 -38 19 -62 22 -84 8 -138
-55 -138 -162 0 -31 7 -69 15 -86 19 -36 70 -69 108 -69 32 0 83 24 90 42 3 7
6 3 6 -9 1 -18 7 -23 26 -23 l25 0 0 210 0 210 -25 0 c-24 0 -25 -2 -25 -77z
m-14 -129 c17 -40 17 -66 3 -117 -20 -72 -108 -82 -141 -16 -34 65 -17 147 34
172 43 21 86 5 104 -39z"/>
<path d="M22604 16391 c-40 -24 -64 -77 -64 -140 0 -67 21 -116 59 -135 38
-20 101 -21 127 -1 29 22 33 18 27 -22 -8 -54 -32 -76 -84 -76 -31 0 -47 6
-60 22 -18 22 -59 29 -59 10 0 -62 109 -99 185 -63 56 26 65 60 65 248 0 159
-1 166 -20 166 -11 0 -20 -7 -20 -15 0 -12 -6 -11 -32 5 -41 25 -84 25 -124 1z
m123 -50 c42 -40 37 -153 -10 -186 -47 -33 -108 -8 -123 50 -9 36 1 101 20
130 21 32 82 35 113 6z"/>
<path d="M22932 16390 c-61 -37 -89 -141 -58 -213 32 -75 115 -107 188 -73 32
15 68 60 68 85 0 21 -39 11 -55 -13 -21 -31 -68 -48 -99 -36 -30 11 -56 47
-56 77 0 23 2 23 111 23 l112 0 -6 45 c-8 58 -32 94 -74 111 -46 20 -93 17
-131 -6z m131 -52 c9 -11 17 -29 17 -39 0 -17 -8 -19 -80 -19 -86 0 -94 6 -64
48 32 46 93 50 127 10z"/>
<path d="M23390 16382 c-35 -36 -40 -82 -11 -111 10 -10 45 -26 77 -35 78 -22
89 -29 89 -57 0 -57 -117 -61 -143 -4 -12 25 -52 36 -52 14 0 -26 33 -77 56
-88 32 -14 106 -14 137 0 29 13 57 58 57 91 -1 44 -31 67 -115 87 -58 14 -75
26 -75 52 0 43 78 52 116 14 27 -27 64 -33 64 -11 0 8 -11 27 -23 42 -20 23
-34 28 -85 32 -58 4 -63 3 -92 -26z"/>
<path d="M23708 16394 c-39 -21 -68 -83 -68 -144 0 -108 53 -164 148 -157 41
3 59 10 82 32 72 69 65 218 -12 265 -39 24 -111 26 -150 4z m119 -39 c61 -42
49 -188 -17 -215 -85 -35 -149 71 -106 174 23 54 78 73 123 41z"/>
<path d="M23980 16282 c0 -115 2 -132 20 -155 29 -37 79 -44 130 -19 31 15 40
16 40 6 0 -8 10 -14 25 -14 l25 0 0 156 0 155 -22 -3 c-22 -3 -23 -8 -28 -108
-6 -133 -21 -160 -84 -160 -45 0 -55 27 -58 150 -3 111 -4 115 -25 118 -23 3
-23 2 -23 -126z"/>
<path d="M24310 16256 l0 -156 25 0 c25 0 25 0 25 95 0 115 10 141 62 157 30
9 38 16 38 35 0 32 -43 31 -75 -1 -24 -24 -24 -24 -27 -2 -2 13 -11 22 -25 24
l-23 3 0 -155z"/>
<path d="M24544 16391 c-46 -28 -67 -81 -62 -155 3 -44 10 -71 26 -94 60 -83
198 -55 227 46 5 19 3 22 -20 22 -15 0 -28 -7 -32 -17 -13 -37 -36 -53 -74
-53 -31 0 -42 5 -56 27 -24 36 -24 130 0 166 32 50 107 45 127 -8 7 -18 17
-25 35 -25 14 0 25 2 25 5 0 20 -32 75 -51 89 -32 22 -106 21 -145 -3z"/>
<path d="M24842 16390 c-61 -37 -89 -141 -58 -213 32 -75 115 -107 188 -73 32
15 68 60 68 85 0 21 -39 11 -55 -13 -21 -31 -68 -48 -99 -36 -30 11 -56 47
-56 77 0 23 2 23 111 23 l112 0 -6 45 c-8 58 -32 94 -74 111 -46 20 -93 17
-131 -6z m131 -52 c9 -11 17 -29 17 -39 0 -17 -8 -19 -80 -19 -86 0 -94 6 -64
48 32 46 93 50 127 10z"/>
<path d="M19346 15918 c-20 -39 -21 -35 9 -42 14 -4 25 -13 25 -21 0 -16 12
-18 48 -9 25 7 29 29 7 38 -8 3 -15 14 -15 25 0 19 -26 41 -49 41 -5 0 -17
-14 -25 -32z"/>
<path d="M15670 15829 c0 -5 5 -7 10 -4 6 3 10 8 10 11 0 2 -4 4 -10 4 -5 0
-10 -5 -10 -11z"/>
<path d="M15648 15796 c-18 -13 -25 -46 -10 -46 5 0 18 14 30 30 24 32 12 41
-20 16z"/>
<path d="M19320 15739 c0 -12 5 -19 12 -17 18 6 20 25 3 31 -10 5 -15 0 -15
-14z"/>
<path d="M22800 15445 l0 -195 140 0 140 0 0 25 0 25 -115 0 -115 0 0 65 0 65
105 0 c98 0 105 1 105 20 0 19 -7 20 -105 20 l-105 0 0 60 0 60 115 0 115 0 0
25 0 25 -140 0 -140 0 0 -195z"/>
<path d="M23153 15624 c-3 -9 -3 -77 0 -151 5 -104 10 -142 24 -166 38 -66
148 -88 214 -44 59 39 69 73 69 235 l0 142 -24 0 -24 0 -4 -151 -3 -151 -28
-24 c-19 -16 -40 -24 -67 -24 -89 0 -100 24 -100 210 l0 140 -25 0 c-14 0 -28
-7 -32 -16z"/>
<path d="M19260 15586 c0 -21 21 -31 30 -15 5 7 6 17 4 21 -9 14 -34 9 -34 -6z"/>
<path d="M22319 15566 c-13 -6 -25 -22 -27 -34 -3 -22 -4 -22 -208 -22 l-204
0 0 -55 0 -55 204 0 c204 0 205 0 208 -22 2 -12 15 -29 29 -37 25 -14 31 -12
105 30 69 39 79 48 82 74 3 39 -2 45 -73 86 -80 47 -88 49 -116 35z"/>
<path d="M19212 15424 c4 -21 22 -23 26 -1 2 10 -3 17 -13 17 -10 0 -15 -6
-13 -16z"/>
<path d="M15336 15334 c-4 -9 -4 -19 -1 -22 2 -3 7 3 11 12 4 9 4 19 1 22 -2
3 -7 -3 -11 -12z"/>
<path d="M19150 15265 c0 -8 6 -15 14 -15 8 0 16 7 20 15 4 10 -1 15 -14 15
-11 0 -20 -7 -20 -15z"/>
<path d="M19100 15105 c0 -8 7 -15 15 -15 8 0 15 7 15 15 0 8 -7 15 -15 15 -8
0 -15 -7 -15 -15z"/>
<path d="M19046 14955 c-2 -7 1 -16 9 -19 7 -2 16 1 19 9 2 7 -1 16 -9 19 -7
2 -16 -1 -19 -9z"/>
<path d="M22790 14725 l0 -195 25 0 24 0 3 155 3 155 96 -153 c88 -139 99
-152 128 -155 l31 -3 0 195 0 196 -25 0 -24 0 -3 -155 -3 -154 -95 154 c-91
148 -96 154 -127 155 l-33 0 0 -195z"/>
<path d="M23624 14905 c-9 -23 3 -45 26 -45 16 0 20 7 20 30 0 23 -4 30 -20
30 -11 0 -23 -7 -26 -15z"/>
<path d="M24660 14725 c0 -188 1 -195 20 -195 19 0 20 7 20 195 0 188 -1 195
-20 195 -19 0 -20 -7 -20 -195z"/>
<path d="M23480 14850 c0 -29 -4 -40 -15 -40 -8 0 -15 -9 -15 -20 0 -11 7 -20
15 -20 12 0 15 -17 15 -92 0 -116 12 -142 63 -146 31 -3 37 0 37 17 0 13 -8
21 -22 23 -22 3 -23 8 -26 100 -3 94 -2 97 20 100 34 5 37 38 4 38 -24 0 -26
4 -26 40 0 36 -2 40 -25 40 -22 0 -25 -4 -25 -40z"/>
<path d="M22307 14832 c-10 -10 -17 -24 -17 -30 0 -9 -54 -12 -200 -12 l-200
0 0 -55 0 -55 198 0 198 0 11 -30 c15 -41 49 -40 128 5 112 62 114 89 10 152
-77 47 -104 52 -128 25z"/>
<path d="M23240 14813 c-27 -10 -60 -46 -60 -65 0 -25 25 -22 54 7 43 43 122
26 114 -25 -3 -21 -11 -25 -71 -35 -82 -13 -111 -37 -111 -91 0 -73 82 -107
154 -63 22 14 36 17 38 10 6 -17 39 -32 56 -25 20 8 21 30 1 38 -12 4 -15 25
-15 100 0 85 -2 98 -23 122 -18 21 -34 27 -73 30 -27 2 -56 1 -64 -3z m110
-167 c0 -38 -10 -56 -41 -71 -38 -20 -63 -19 -84 5 -15 16 -16 25 -7 44 10 23
29 30 125 45 4 0 7 -10 7 -23z"/>
<path d="M23810 14807 c-44 -22 -70 -73 -70 -139 0 -71 20 -111 66 -133 40
-19 75 -19 120 0 62 26 92 132 60 210 -27 63 -114 94 -176 62z m110 -47 c66
-66 18 -212 -64 -196 -17 4 -37 13 -44 20 -35 35 -29 146 9 179 28 23 74 22
99 -3z"/>
<path d="M24133 14800 c-27 -16 -33 -17 -33 -5 0 9 -10 15 -25 15 l-25 0 0
-140 0 -140 24 0 c24 0 24 2 28 100 3 86 6 102 25 121 24 25 76 30 96 10 7 -7
13 -53 15 -121 4 -109 4 -110 28 -110 24 0 24 2 24 88 -1 107 -12 162 -41 185
-28 23 -76 22 -116 -3z"/>
<path d="M24420 14813 c-27 -10 -60 -46 -60 -65 0 -25 25 -22 54 7 43 43 122
26 114 -25 -3 -21 -11 -25 -71 -35 -82 -13 -111 -37 -111 -91 0 -73 82 -107
154 -63 22 14 36 17 38 10 6 -17 39 -32 56 -25 20 8 21 30 1 38 -12 4 -15 25
-15 100 0 85 -2 98 -23 122 -18 21 -34 27 -73 30 -27 2 -56 1 -64 -3z m110
-167 c0 -38 -10 -56 -41 -71 -38 -20 -63 -19 -84 5 -15 16 -16 25 -7 44 10 23
29 30 125 45 4 0 7 -10 7 -23z"/>
<path d="M18990 14796 c0 -21 21 -31 31 -15 14 22 11 29 -11 29 -11 0 -20 -6
-20 -14z"/>
<path d="M23620 14670 l0 -140 25 0 25 0 0 140 0 140 -25 0 -25 0 0 -140z"/>
<path d="M18936 14634 c-4 -11 -1 -14 11 -12 9 2 18 9 21 16 6 18 -25 15 -32
-4z"/>
<path d="M18882 14478 c6 -18 25 -20 31 -3 5 10 0 15 -14 15 -12 0 -19 -5 -17
-12z"/>
<path d="M14766 14375 c-11 -8 -30 -15 -43 -15 -13 0 -23 -4 -23 -9 0 -6 16
-7 35 -4 23 4 35 2 35 -6 0 -19 34 -12 48 9 23 38 -13 54 -52 25z"/>
<path d="M18832 14324 c3 -17 21 -21 26 -6 1 5 -4 12 -13 16 -11 4 -15 1 -13
-10z"/>
<path d="M14750 14245 c0 -8 9 -15 20 -15 13 0 18 5 14 15 -4 8 -12 15 -20 15
-8 0 -14 -7 -14 -15z"/>
<path d="M14317 14243 c-3 -5 -8 -30 -12 -56 -6 -40 -4 -50 10 -61 15 -10 24
-9 53 5 19 10 40 20 46 22 8 3 8 8 -1 17 -6 7 -10 18 -7 24 2 6 -12 21 -31 34
-37 23 -51 27 -58 15z"/>
<path d="M22790 14005 l0 -195 125 0 125 0 0 25 0 25 -100 0 -100 0 0 170 0
170 -25 0 -25 0 0 -195z"/>
<path d="M23970 14005 c0 -188 1 -195 20 -195 19 0 20 7 20 195 0 188 -1 195
-20 195 -19 0 -20 -7 -20 -195z"/>
<path d="M18775 14170 c-7 -12 2 -30 16 -30 5 0 9 9 9 20 0 21 -15 27 -25 10z"/>
<path d="M22306 14114 c-9 -8 -16 -22 -16 -30 0 -12 -34 -14 -205 -14 l-205 0
0 -55 0 -55 203 0 203 0 10 -28 c15 -40 44 -44 101 -15 77 40 113 72 113 97 0
28 -17 44 -91 85 -62 35 -90 38 -113 15z"/>
<path d="M23140 14087 c-44 -22 -70 -73 -70 -139 0 -71 20 -111 66 -133 40
-19 75 -19 120 0 62 26 92 132 60 210 -27 63 -114 94 -176 62z m110 -47 c66
-66 18 -212 -64 -196 -17 4 -37 13 -44 20 -35 35 -29 146 9 179 28 23 74 22
99 -3z"/>
<path d="M23440 14087 c-13 -7 -35 -28 -48 -47 -20 -30 -23 -44 -20 -102 3
-58 8 -72 32 -97 16 -17 42 -33 57 -36 57 -13 129 29 142 83 4 18 1 22 -18 22
-15 0 -26 -8 -30 -20 -16 -51 -89 -61 -120 -17 -19 28 -19 110 0 147 26 50
104 50 120 1 4 -14 15 -21 31 -21 28 0 29 2 9 45 -25 51 -97 71 -155 42z"/>
<path d="M23730 14093 c-27 -10 -60 -46 -60 -65 0 -25 25 -22 54 7 43 43 122
26 114 -25 -3 -21 -11 -25 -71 -35 -82 -13 -111 -37 -111 -91 0 -73 82 -107
154 -63 22 14 36 17 38 10 6 -17 39 -32 56 -25 20 8 21 30 1 38 -12 4 -15 25
-15 100 0 85 -2 98 -23 122 -18 21 -34 27 -73 30 -27 2 -56 1 -64 -3z m110
-167 c0 -38 -10 -56 -41 -71 -38 -20 -63 -19 -84 5 -15 16 -16 25 -7 44 10 23
29 30 125 45 4 0 7 -10 7 -23z"/>
<path d="M14776 14076 c7 -19 38 -22 32 -3 -3 6 -12 13 -21 15 -12 2 -15 -1
-11 -12z"/>
<path d="M18720 14005 c0 -8 7 -15 15 -15 8 0 15 7 15 15 0 8 -7 15 -15 15 -8
0 -15 -7 -15 -15z"/>
<path d="M14790 13909 c0 -25 33 -22 38 4 2 12 -3 17 -17 17 -15 0 -21 -6 -21
-21z"/>
<path d="M18667 13854 c-8 -8 1 -24 13 -24 4 0 10 7 14 15 5 15 -14 21 -27 9z"/>
<path d="M8250 13550 l0 -210 25 0 25 0 2 161 3 161 109 -161 c98 -145 112
-161 137 -161 l29 0 0 210 0 210 -25 0 -25 0 -2 -162 -3 -163 -109 163 c-98
146 -112 162 -138 162 l-28 0 0 -210z"/>
<path d="M9160 13730 c0 -25 4 -30 25 -30 21 0 25 5 25 30 0 25 -4 30 -25 30
-21 0 -25 -5 -25 -30z"/>
<path d="M10280 13550 l0 -210 25 0 25 0 0 210 0 210 -25 0 -25 0 0 -210z"/>
<path d="M10580 13550 l0 -210 25 0 25 0 0 210 0 210 -25 0 -25 0 0 -210z"/>
<path d="M11660 13550 l0 -210 25 0 25 0 0 210 0 210 -25 0 -25 0 0 -210z"/>
<path d="M14820 13745 c0 -8 7 -15 15 -15 8 0 15 7 15 15 0 8 -7 15 -15 15 -8
0 -15 -7 -15 -15z"/>
<path d="M9018 13736 c-12 -8 -18 -27 -18 -50 0 -29 -4 -36 -20 -36 -13 0 -20
-7 -20 -20 0 -13 7 -20 20 -20 19 0 20 -7 20 -119 0 -95 3 -123 16 -135 19
-19 94 -22 94 -3 0 20 -14 34 -35 38 -18 4 -20 13 -23 112 l-3 107 26 0 c18 0
25 5 25 20 0 15 -7 20 -25 20 -23 0 -25 3 -25 50 0 53 -4 58 -32 36z"/>
<path d="M18615 13700 c-7 -12 2 -30 16 -30 12 0 12 27 0 35 -5 3 -12 1 -16
-5z"/>
<path d="M8715 13641 c-23 -10 -49 -38 -58 -63 -8 -24 34 -33 50 -10 26 37 35
42 71 42 46 0 69 -16 74 -50 3 -23 -1 -25 -81 -42 -91 -19 -117 -35 -126 -78
-19 -87 95 -138 184 -82 22 13 26 13 36 -2 7 -9 21 -16 31 -16 18 0 19 8 16
118 -3 131 -12 164 -48 181 -28 13 -119 14 -149 2z m139 -183 c-9 -47 -44 -80
-87 -81 -42 -1 -67 17 -67 49 0 28 10 34 75 50 81 20 85 19 79 -18z"/>
<path d="M9160 13495 l0 -155 25 0 25 0 0 155 0 155 -25 0 -25 0 0 -155z"/>
<path d="M9334 13631 c-83 -51 -84 -214 -2 -275 56 -41 172 -17 202 42 40 78
27 171 -29 221 -30 26 -44 31 -88 31 -33 0 -63 -7 -83 -19z m137 -50 c24 -25
29 -37 29 -81 0 -80 -29 -119 -86 -120 -43 0 -73 27 -84 74 -12 53 -2 101 28
131 34 34 76 33 113 -4z"/>
<path d="M9620 13495 l0 -155 25 0 c25 0 25 0 25 100 0 109 10 142 47 159 36
16 58 14 79 -10 16 -18 20 -40 22 -135 4 -114 4 -114 29 -114 l25 0 -4 131
c-3 129 -3 131 -31 155 -19 16 -40 24 -67 24 -43 0 -90 -17 -91 -34 0 -6 -4
-1 -9 12 -6 12 -18 22 -30 22 -19 0 -20 -6 -20 -155z"/>
<path d="M10005 13641 c-23 -10 -49 -38 -58 -63 -8 -24 34 -33 50 -10 26 37
35 42 71 42 46 0 69 -16 74 -50 3 -23 -1 -25 -81 -42 -91 -19 -117 -35 -126
-78 -19 -87 95 -138 184 -82 22 13 26 13 36 -2 7 -9 21 -16 31 -16 18 0 19 8
16 118 -3 131 -12 164 -48 181 -28 13 -119 14 -149 2z m139 -183 c-9 -47 -44
-80 -87 -81 -42 -1 -67 17 -67 49 0 28 10 34 75 50 81 20 85 19 79 -18z"/>
<path d="M10740 13612 c-46 -45 -60 -109 -40 -175 32 -107 169 -139 243 -57
33 37 34 47 6 55 -17 6 -27 0 -46 -24 -20 -25 -32 -31 -62 -31 -45 0 -91 39
-91 76 0 24 1 24 110 24 l110 0 0 35 c0 44 -21 86 -56 114 -20 16 -41 21 -82
21 -50 0 -58 -3 -92 -38z m141 -15 c18 -13 39 -50 39 -66 0 -7 -32 -11 -85
-11 -89 0 -95 3 -73 43 17 32 39 46 73 46 17 0 37 -5 46 -12z"/>
<path d="M11012 13638 c3 -7 29 -77 58 -156 51 -136 55 -143 79 -140 24 3 31
17 83 153 45 119 53 151 42 153 -30 7 -42 -8 -74 -100 -18 -51 -37 -104 -43
-118 -8 -22 -14 -11 -51 95 -40 112 -44 120 -71 123 -20 3 -26 0 -23 -10z"/>
<path d="M11360 13612 c-46 -45 -60 -109 -40 -175 32 -107 169 -139 243 -57
33 37 34 47 6 55 -17 6 -27 0 -46 -24 -20 -25 -32 -31 -62 -31 -45 0 -91 39
-91 76 0 24 1 24 110 24 l110 0 0 35 c0 44 -21 86 -56 114 -20 16 -41 21 -82
21 -50 0 -58 -3 -92 -38z m141 -15 c18 -13 39 -50 39 -66 0 -7 -32 -11 -85
-11 -89 0 -95 3 -73 43 17 32 39 46 73 46 17 0 37 -5 46 -12z"/>
<path d="M14840 13580 c0 -13 5 -18 15 -14 8 4 15 12 15 20 0 8 -7 14 -15 14
-8 0 -15 -9 -15 -20z"/>
<path d="M14477 13573 c-3 -5 -8 -23 -12 -42 -6 -29 -4 -37 16 -52 22 -17 25
-16 63 3 34 17 37 22 25 32 -9 6 -14 16 -12 22 2 5 -13 18 -32 27 -41 19 -42
20 -48 10z"/>
<path d="M18557 13536 c-3 -8 0 -17 8 -20 14 -5 28 17 18 28 -10 10 -21 7 -26
-8z"/>
<path d="M18396 13425 c-46 -13 -66 -42 -22 -31 25 6 27 5 21 -15 -4 -12 -23
-35 -43 -53 -39 -34 -62 -80 -62 -125 0 -16 -6 -31 -15 -35 -22 -8 -18 -26 5
-26 11 0 20 -5 20 -10 0 -6 19 -28 41 -50 39 -38 45 -40 101 -40 65 0 106 16
137 56 15 19 26 24 41 19 15 -5 20 -2 20 10 0 12 -5 15 -16 11 -14 -5 -15 -1
-10 29 13 67 -17 130 -84 178 -14 10 -19 15 -12 12 7 -4 12 1 12 14 0 12 -7
21 -15 21 -8 0 -15 -7 -15 -15 0 -16 -9 -19 -33 -9 -11 4 -14 15 -10 38 6 37
1 39 -61 21z m151 -128 c31 -29 37 -41 40 -88 5 -66 -17 -107 -70 -132 -33
-16 -97 -23 -97 -11 0 3 9 27 21 54 14 33 25 47 35 43 8 -3 17 2 20 11 9 25
-4 66 -22 66 -13 0 -15 7 -9 37 4 21 9 41 11 45 10 16 36 7 71 -25z m-160 -5
c10 -6 9 -27 -3 -97 -19 -117 -18 -115 -37 -79 -14 27 -15 42 -6 95 16 95 18
99 46 81z"/>
<path d="M14860 13415 c0 -8 7 -15 15 -15 8 0 15 7 15 15 0 8 -7 15 -15 15 -8
0 -15 -7 -15 -15z"/>
<path d="M20246 13386 c4 -24 2 -36 -5 -36 -18 0 -13 -25 9 -45 19 -17 20 -17
29 8 5 14 19 28 30 32 23 7 24 9 14 43 -4 18 -11 22 -26 18 -11 -3 -29 0 -39
5 -18 10 -19 7 -12 -25z"/>
<path d="M20120 13355 c0 -8 7 -15 15 -15 8 0 15 7 15 15 0 8 -7 15 -15 15 -8
0 -15 -7 -15 -15z"/>
<path d="M19950 13335 c0 -8 9 -15 20 -15 11 0 20 7 20 15 0 8 -9 15 -20 15
-11 0 -20 -7 -20 -15z"/>
<path d="M19790 13325 c0 -8 7 -15 15 -15 8 0 15 7 15 15 0 8 -7 15 -15 15 -8
0 -15 -7 -15 -15z"/>
<path d="M19620 13305 c0 -8 9 -15 20 -15 13 0 18 5 14 15 -4 8 -12 15 -20 15
-8 0 -14 -7 -14 -15z"/>
<path d="M19460 13290 c0 -13 5 -18 15 -14 8 4 15 12 15 20 0 8 -7 14 -15 14
-8 0 -15 -9 -15 -20z"/>
<path d="M19290 13275 c0 -8 7 -15 15 -15 8 0 15 7 15 15 0 8 -7 15 -15 15 -8
0 -15 -7 -15 -15z"/>
<path d="M19133 13274 c-17 -7 -4 -34 13 -27 8 3 14 11 14 19 0 14 -6 16 -27
8z"/>
<path d="M14883 13255 c-3 -9 -3 -18 0 -21 9 -9 27 6 27 22 0 19 -19 18 -27
-1z"/>
<path d="M18960 13245 c0 -8 7 -15 15 -15 8 0 15 7 15 15 0 8 -7 15 -15 15 -8
0 -15 -7 -15 -15z"/>
<path d="M18803 13243 c-16 -6 -17 -33 -3 -33 11 0 26 28 19 34 -2 2 -10 1
-16 -1z"/>
<path d="M18630 13215 c0 -8 7 -15 15 -15 8 0 15 7 15 15 0 8 -7 15 -15 15 -8
0 -15 -7 -15 -15z"/>
<path d="M18097 13124 c-9 -10 2 -24 19 -24 8 0 14 7 14 15 0 15 -21 21 -33 9z"/>
<path d="M14900 13085 c0 -8 7 -15 15 -15 8 0 15 7 15 15 0 8 -7 15 -15 15 -8
0 -15 -7 -15 -15z"/>
<path d="M17935 13080 c-3 -6 1 -13 10 -16 19 -8 30 0 20 15 -8 14 -22 14 -30
1z"/>
<path d="M18767 13066 c-6 -16 19 -30 28 -16 7 11 -2 30 -15 30 -4 0 -10 -6
-13 -14z"/>
<path d="M17770 13030 c0 -22 1 -23 24 -14 18 7 10 34 -10 34 -8 0 -14 -9 -14
-20z"/>
<path d="M17613 12995 c-7 -20 0 -27 20 -19 9 3 13 12 10 20 -7 19 -22 18 -30
-1z"/>
<path d="M18920 12995 c0 -8 6 -15 14 -15 8 0 16 7 20 15 4 10 -1 15 -14 15
-11 0 -20 -7 -20 -15z"/>
<path d="M17457 12963 c-13 -13 -7 -32 8 -27 8 4 15 12 15 20 0 15 -12 19 -23
7z"/>
<path d="M18350 12960 c0 -5 9 -10 20 -10 11 0 20 5 20 10 0 6 -9 10 -20 10
-11 0 -20 -4 -20 -10z"/>
<path d="M19074 12939 c-3 -6 0 -15 7 -20 14 -8 32 9 23 23 -7 11 -22 10 -30
-3z"/>
<path d="M14923 12925 c-3 -9 -3 -18 0 -21 9 -9 27 6 27 22 0 19 -19 18 -27
-1z"/>
<path d="M17297 12923 c-12 -11 -8 -23 8 -23 8 0 15 7 15 15 0 16 -12 20 -23
8z"/>
<path d="M17125 12880 c-3 -6 1 -13 10 -16 19 -8 30 0 20 15 -8 14 -22 14 -30
1z"/>
<path d="M19232 12874 c3 -17 21 -21 26 -6 1 5 -4 12 -13 16 -11 4 -15 1 -13
-10z"/>
<path d="M16960 12836 c0 -10 9 -16 21 -16 24 0 21 23 -4 28 -10 2 -17 -3 -17
-12z"/>
<path d="M19380 12806 c0 -8 7 -16 15 -20 10 -4 15 1 15 14 0 11 -7 20 -15 20
-8 0 -15 -6 -15 -14z"/>
<path d="M16800 12790 c0 -22 7 -25 29 -11 16 10 6 31 -15 31 -8 0 -14 -9 -14
-20z"/>
<path d="M14940 12755 c0 -8 7 -15 15 -15 8 0 15 7 15 15 0 8 -7 15 -15 15 -8
0 -15 -7 -15 -15z"/>
<path d="M16640 12750 c0 -22 1 -23 24 -14 18 7 10 34 -10 34 -8 0 -14 -9 -14
-20z"/>
<path d="M19536 12745 c-5 -14 17 -28 28 -18 10 10 7 21 -8 26 -8 3 -17 0 -20
-8z"/>
<path d="M16487 12723 c-13 -13 -7 -32 8 -27 8 4 15 12 15 20 0 15 -12 19 -23
7z"/>
<path d="M16326 12683 c-11 -11 -6 -23 9 -23 8 0 15 4 15 9 0 13 -16 22 -24
14z"/>
<path d="M19690 12675 c0 -8 7 -15 15 -15 8 0 15 7 15 15 0 8 -7 15 -15 15 -8
0 -15 -7 -15 -15z"/>
<path d="M21850 12460 l0 -210 155 0 155 0 0 25 0 25 -125 0 -125 0 0 70 0 70
115 0 115 0 0 25 0 25 -115 0 -115 0 0 65 0 65 120 0 120 0 0 25 0 25 -150 0
-150 0 0 -210z"/>
<path d="M22430 12593 c0 -75 0 -76 -20 -58 -10 9 -38 19 -62 22 -84 8 -138
-55 -138 -162 0 -31 7 -69 15 -86 19 -36 70 -69 108 -69 32 0 83 24 90 42 3 7
6 3 6 -9 1 -18 7 -23 26 -23 l25 0 0 210 0 210 -25 0 c-24 0 -25 -2 -25 -77z
m-14 -129 c17 -40 17 -66 3 -117 -20 -72 -108 -82 -141 -16 -34 65 -17 147 34
172 43 21 86 5 104 -39z"/>
<path d="M16155 12640 c-3 -6 1 -13 10 -16 19 -8 30 0 20 15 -8 14 -22 14 -30
1z"/>
<path d="M19846 12623 c-10 -10 -7 -21 8 -26 8 -3 17 0 20 8 5 14 -17 28 -28
18z"/>
<path d="M14973 12603 c-18 -7 -16 -33 2 -33 8 0 15 9 15 20 0 11 -1 20 -2 19
-2 0 -9 -3 -15 -6z"/>
<path d="M15994 12599 c-3 -6 -2 -15 2 -19 12 -12 38 5 30 19 -9 14 -23 14
-32 0z"/>
<path d="M20044 12553 c-5 -20 -8 -23 -11 -11 -2 9 -11 19 -19 22 -12 4 -14
-2 -10 -32 3 -20 5 -45 5 -56 1 -17 3 -17 24 -3 13 8 37 17 53 19 23 2 29 8
31 30 1 21 -5 30 -29 43 -39 19 -34 20 -44 -12z"/>
<path d="M15830 12550 c0 -22 1 -23 24 -14 18 7 10 34 -10 34 -8 0 -14 -9 -14
-20z"/>
<path d="M22604 12541 c-40 -24 -64 -77 -64 -140 0 -67 21 -116 59 -135 38
-20 101 -21 127 -1 29 22 33 18 27 -22 -8 -54 -32 -76 -84 -76 -31 0 -47 6
-60 22 -18 22 -59 29 -59 10 0 -62 109 -99 185 -63 56 26 65 60 65 248 0 159
-1 166 -20 166 -11 0 -20 -7 -20 -15 0 -12 -6 -11 -32 5 -41 25 -84 25 -124 1z
m123 -50 c42 -40 37 -153 -10 -186 -47 -33 -108 -8 -123 50 -9 36 1 101 20
130 21 32 82 35 113 6z"/>
<path d="M22932 12540 c-61 -37 -89 -141 -58 -213 32 -75 115 -107 188 -73 32
15 68 60 68 85 0 21 -39 11 -55 -13 -21 -31 -68 -48 -99 -36 -30 11 -56 47
-56 77 0 23 2 23 111 23 l112 0 -6 45 c-8 58 -32 94 -74 111 -46 20 -93 17
-131 -6z m131 -52 c9 -11 17 -29 17 -39 0 -17 -8 -19 -80 -19 -86 0 -94 6 -64
48 32 46 93 50 127 10z"/>
<path d="M23390 12532 c-35 -36 -40 -82 -11 -111 10 -10 45 -26 77 -35 78 -22
89 -29 89 -57 0 -57 -117 -61 -143 -4 -12 25 -52 36 -52 14 0 -26 33 -77 56
-88 32 -14 106 -14 137 0 29 13 57 58 57 91 -1 44 -31 67 -115 87 -58 14 -75
26 -75 52 0 43 78 52 116 14 27 -27 64 -33 64 -11 0 8 -11 27 -23 42 -20 23
-34 28 -85 32 -58 4 -63 3 -92 -26z"/>
<path d="M23733 12540 c-27 -16 -33 -17 -33 -5 0 9 -10 15 -25 15 l-25 0 0
-210 0 -210 25 0 c24 0 25 2 25 75 l0 75 33 -20 c93 -57 186 16 187 148 0 122
-95 189 -187 132z m88 -30 c66 -36 64 -180 -2 -213 -68 -32 -114 10 -113 103
1 63 15 97 47 110 30 12 45 12 68 0z"/>
<path d="M24028 12545 c-49 -27 -66 -85 -25 -85 13 0 26 9 32 22 21 47 106 49
127 2 16 -34 2 -45 -72 -56 -77 -10 -98 -22 -116 -63 -38 -91 69 -161 157
-102 l33 22 23 -23 c13 -13 31 -22 41 -20 22 4 29 48 8 48 -14 0 -16 16 -16
104 0 96 -2 107 -23 132 -20 23 -33 28 -83 31 -40 2 -68 -2 -86 -12z m139
-181 c-8 -45 -20 -60 -63 -74 -29 -10 -39 -9 -59 4 -27 18 -33 57 -12 74 11 9
86 28 126 31 10 1 12 -8 8 -35z"/>
<path d="M24310 12405 l0 -155 25 0 25 0 0 104 c0 94 2 108 23 131 15 18 33
26 54 27 57 2 63 -11 63 -143 l0 -119 30 0 30 0 0 98 c-1 174 -24 218 -112
210 -27 -3 -57 -13 -67 -22 -17 -16 -19 -16 -24 4 -3 12 -13 20 -26 20 -20 0
-21 -4 -21 -155z"/>
<path d="M15677 12523 c-13 -13 -7 -32 8 -27 8 4 15 12 15 20 0 15 -12 19 -23
7z"/>
<path d="M15507 12484 c-3 -3 -3 -12 0 -19 6 -17 33 -8 33 11 0 14 -21 19 -33
8z"/>
<path d="M14664 12449 c-5 -9 25 -69 35 -69 10 0 43 70 33 71 -40 4 -64 4 -68
-2z"/>
<path d="M15350 12436 c0 -9 7 -16 16 -16 9 0 14 5 12 12 -6 18 -28 21 -28 4z"/>
<path d="M14980 12425 c0 -8 7 -15 15 -15 8 0 15 7 15 15 0 8 -7 15 -15 15 -8
0 -15 -7 -15 -15z"/>
<path d="M15187 12404 c-9 -10 2 -24 18 -24 9 0 12 6 9 15 -6 16 -17 19 -27 9z"/>
<path d="M14813 12353 c-3 -10 -17 -30 -30 -44 -22 -24 -23 -27 -7 -33 15 -6
14 -9 -9 -21 -15 -8 -33 -12 -40 -10 -7 3 -20 -12 -29 -33 -28 -61 -22 -76 16
-47 26 20 33 19 39 -5 7 -28 27 -25 25 3 -5 56 46 114 80 93 6 -3 8 3 5 14 -3
12 1 22 11 26 22 9 20 19 -9 49 -30 29 -43 31 -52 8z"/>
<path d="M15027 12363 c-13 -12 -7 -23 13 -23 13 0 18 5 14 15 -7 16 -17 19
-27 8z"/>
<path d="M15000 12255 c0 -8 7 -15 15 -15 8 0 15 7 15 15 0 8 -7 15 -15 15 -8
0 -15 -7 -15 -15z"/>
<path d="M14845 12110 c-4 -6 -3 -16 3 -22 6 -6 12 -6 17 2 4 6 3 16 -3 22 -6
6 -12 6 -17 -2z"/>
<path d="M15020 12095 c0 -8 7 -15 15 -15 8 0 15 7 15 15 0 8 -7 15 -15 15 -8
0 -15 -7 -15 -15z"/>
<path d="M14794 12077 c-8 -21 2 -35 16 -21 5 5 6 15 0 24 -8 12 -10 12 -16
-3z"/>
<path d="M14857 12033 c-3 -5 -2 -15 2 -22 7 -10 10 -10 16 -1 4 6 3 16 -3 22
-5 5 -12 6 -15 1z"/>
<path d="M15080 11969 c0 -6 5 -19 10 -30 7 -13 7 -19 0 -19 -5 0 -10 7 -10
16 0 21 -34 14 -38 -9 -3 -14 4 -17 36 -17 22 0 49 -3 59 -7 10 -4 6 4 -12 20
-23 21 -26 26 -12 27 9 0 17 -5 17 -11 0 -8 5 -8 15 1 15 12 11 35 -5 25 -5
-3 -20 -1 -34 5 -18 6 -26 6 -26 -1z"/>
<path d="M14922 11958 c5 -15 28 -18 29 -3 0 6 -7 12 -17 13 -10 3 -15 -1 -12
-10z"/>
<path d="M14885 11940 c-4 -6 -3 -16 3 -22 13 -13 23 4 13 21 -7 10 -10 10
-16 1z"/>
<path d="M14955 11900 c-4 -6 -3 -16 3 -22 6 -6 12 -6 17 2 4 6 3 16 -3 22 -6
6 -12 6 -17 -2z"/>
<path d="M22764 11783 c4 -15 49 -188 87 -335 8 -33 14 -38 38 -38 27 0 28 2
71 155 24 85 45 153 48 151 2 -3 23 -71 46 -153 41 -147 42 -148 70 -148 l29
0 48 180 c26 99 48 186 49 193 0 9 -10 12 -27 10 -27 -3 -29 -6 -63 -155 -19
-84 -37 -147 -41 -140 -3 6 -24 76 -45 155 l-39 143 -29 -3 c-29 -3 -30 -5
-70 -150 -22 -82 -43 -148 -46 -148 -3 0 -20 68 -39 150 l-34 150 -29 0 c-23
0 -28 -4 -24 -17z"/>
<path d="M23294 11785 c-9 -23 3 -45 26 -45 16 0 20 7 20 30 0 23 -4 30 -20
30 -11 0 -23 -7 -26 -15z"/>
<path d="M23560 11605 l0 -195 24 0 c24 0 24 2 28 100 3 86 6 102 25 121 24
25 76 30 96 10 7 -7 13 -53 15 -121 4 -109 4 -110 28 -110 24 0 24 2 24 88 -1
161 -26 208 -108 199 -23 -2 -52 -13 -62 -22 -20 -18 -20 -17 -20 53 0 70 -1
72 -25 72 l-25 0 0 -195z"/>
<path d="M23874 11785 c-9 -23 3 -45 26 -45 16 0 20 7 20 30 0 23 -4 30 -20
30 -11 0 -23 -7 -26 -15z"/>
<path d="M24450 11605 c0 -188 1 -195 20 -195 19 0 20 7 20 195 0 188 -1 195
-20 195 -19 0 -20 -7 -20 -195z"/>
<path d="M25440 11605 c0 -188 1 -195 20 -195 19 0 20 7 20 195 0 188 -1 195
-20 195 -19 0 -20 -7 -20 -195z"/>
<path d="M23420 11730 c0 -29 -4 -40 -15 -40 -8 0 -15 -9 -15 -20 0 -11 7 -20
15 -20 12 0 15 -17 15 -92 0 -116 12 -142 63 -146 31 -3 37 0 37 17 0 13 -8
21 -22 23 -22 3 -23 8 -26 100 -3 94 -2 97 20 100 34 5 37 38 4 38 -24 0 -26
4 -26 40 0 36 -2 40 -25 40 -22 0 -25 -4 -25 -40z"/>
<path d="M24073 11680 c-27 -16 -33 -17 -33 -5 0 9 -10 15 -25 15 l-25 0 0
-140 0 -140 24 0 c24 0 24 2 28 100 3 86 6 102 25 121 24 25 76 30 96 10 7 -7
13 -53 15 -121 4 -109 4 -110 28 -110 24 0 24 2 24 88 -1 107 -12 162 -41 185
-28 23 -76 22 -116 -3z"/>
<path d="M24621 11683 c-61 -30 -89 -132 -57 -208 27 -64 112 -93 175 -61 28
15 61 56 61 76 0 17 -38 11 -52 -9 -8 -11 -26 -25 -40 -32 -35 -15 -81 2 -97
37 -23 52 -19 54 95 54 l107 0 -7 41 c-9 56 -21 76 -59 99 -39 24 -81 25 -126
3z m87 -29 c27 -8 58 -62 44 -76 -5 -5 -40 -8 -78 -6 -63 3 -69 5 -66 23 3 22
46 65 65 65 7 0 22 -3 35 -6z"/>
<path d="M25191 11683 c-61 -30 -89 -132 -57 -208 27 -64 112 -93 175 -61 28
15 61 56 61 76 0 17 -38 11 -52 -9 -8 -11 -26 -25 -40 -32 -35 -15 -81 2 -97
37 -23 52 -19 54 95 54 l107 0 -7 41 c-9 56 -21 76 -59 99 -39 24 -81 25 -126
3z m87 -29 c27 -8 58 -62 44 -76 -5 -5 -40 -8 -78 -6 -63 3 -69 5 -66 23 3 22
46 65 65 65 7 0 22 -3 35 -6z"/>
<path d="M23290 11550 l0 -140 25 0 25 0 0 140 0 140 -25 0 -25 0 0 -140z"/>
<path d="M23870 11550 l0 -140 25 0 25 0 0 140 0 140 -25 0 -25 0 0 -140z"/>
<path d="M24841 11678 c0 -7 22 -69 47 -138 43 -113 50 -125 73 -128 18 -2 29
3 34 15 20 52 95 255 95 258 0 3 -11 5 -24 5 -22 0 -28 -9 -52 -82 -52 -159
-46 -157 -89 -29 -33 101 -39 111 -61 111 -13 0 -24 -6 -23 -12z"/>
<path d="M21880 11605 l0 -55 60 0 60 0 0 55 0 55 -60 0 -60 0 0 -55z"/>
<path d="M22340 11605 l0 -55 60 0 60 0 0 55 0 55 -60 0 -60 0 0 -55z"/>
<path d="M15166 11514 c-10 -25 -1 -27 25 -5 24 20 24 20 3 21 -12 0 -25 -7
-28 -16z"/>
<path d="M15252 11387 c-18 -21 0 -40 23 -24 10 8 15 19 11 25 -9 16 -21 15
-34 -1z"/>
<path d="M15451 11296 c11 -9 69 -14 69 -6 0 6 -16 10 -37 10 -20 0 -34 -2
-32 -4z"/>
<path d="M15340 11250 c-13 -8 -13 -11 0 -24 18 -19 43 -6 34 17 -7 19 -13 21
-34 7z"/>
<path d="M15471 11244 c0 -11 3 -14 6 -6 3 7 2 16 -1 19 -3 4 -6 -2 -5 -13z"/>
<path d="M22890 11079 c-33 -13 -78 -57 -97 -94 -25 -47 -21 -153 8 -212 67
-135 268 -117 309 27 8 28 7 30 -21 30 -23 0 -29 -4 -29 -21 0 -11 -13 -34
-29 -50 -23 -22 -39 -29 -70 -29 -86 0 -131 53 -131 155 0 96 48 155 125 155
46 0 89 -26 100 -60 9 -27 55 -28 55 -1 0 27 -48 81 -87 97 -37 16 -97 17
-133 3z"/>
<path d="M24360 10885 c0 -188 1 -195 20 -195 19 0 20 7 20 195 0 188 -1 195
-20 195 -19 0 -20 -7 -20 -195z"/>
<path d="M25350 10885 c0 -188 1 -195 20 -195 19 0 20 7 20 195 0 188 -1 195
-20 195 -19 0 -20 -7 -20 -195z"/>
<path d="M23265 10968 c-11 -6 -25 -19 -32 -27 -11 -14 -12 -13 -13 7 0 15 -6
22 -20 22 -19 0 -20 -7 -20 -140 0 -133 1 -140 20 -140 18 0 20 7 20 79 0 110
23 160 73 161 11 0 17 8 17 25 0 27 -14 31 -45 13z"/>
<path d="M23410 10967 c-44 -22 -70 -73 -70 -139 0 -71 20 -111 66 -133 40
-19 75 -19 120 0 62 26 92 132 60 210 -27 63 -114 94 -176 62z m110 -47 c66
-66 18 -212 -64 -196 -17 4 -37 13 -44 20 -35 35 -29 146 9 179 28 23 74 22
99 -3z"/>
<path d="M23695 10969 c-31 -19 -44 -41 -45 -75 0 -41 24 -61 101 -82 54 -15
65 -21 67 -42 9 -62 -108 -69 -131 -7 -3 9 -16 17 -27 17 -28 0 -26 -32 3 -66
49 -57 186 -36 203 31 15 61 -13 90 -113 115 -50 13 -71 41 -47 64 24 24 71
20 98 -9 46 -50 77 -21 33 31 -18 21 -34 27 -73 31 -28 2 -58 -2 -69 -8z"/>
<path d="M23975 10969 c-31 -19 -44 -41 -45 -75 0 -41 24 -61 101 -82 54 -15
65 -21 67 -42 9 -62 -108 -69 -131 -7 -3 9 -16 17 -27 17 -28 0 -26 -32 3 -66
49 -57 186 -36 203 31 15 61 -13 90 -113 115 -50 13 -71 41 -47 64 24 24 71
20 98 -9 46 -50 77 -21 33 31 -18 21 -34 27 -73 31 -28 2 -58 -2 -69 -8z"/>
<path d="M24531 10963 c-61 -30 -89 -132 -57 -208 27 -64 112 -93 175 -61 28
15 61 56 61 76 0 17 -38 11 -52 -9 -8 -11 -26 -25 -40 -32 -35 -15 -81 2 -97
37 -23 52 -19 54 95 54 l107 0 -7 41 c-9 56 -21 76 -59 99 -39 24 -81 25 -126
3z m87 -29 c27 -8 58 -62 44 -76 -5 -5 -40 -8 -78 -6 -63 3 -69 5 -66 23 3 22
46 65 65 65 7 0 22 -3 35 -6z"/>
<path d="M25101 10963 c-61 -30 -89 -132 -57 -208 27 -64 112 -93 175 -61 28
15 61 56 61 76 0 17 -38 11 -52 -9 -8 -11 -26 -25 -40 -32 -35 -15 -81 2 -97
37 -23 52 -19 54 95 54 l107 0 -7 41 c-9 56 -21 76 -59 99 -39 24 -81 25 -126
3z m87 -29 c27 -8 58 -62 44 -76 -5 -5 -40 -8 -78 -6 -63 3 -69 5 -66 23 3 22
46 65 65 65 7 0 22 -3 35 -6z"/>
<path d="M24751 10958 c0 -7 22 -69 47 -138 43 -113 50 -125 73 -128 18 -2 29
3 34 15 20 52 95 255 95 258 0 3 -11 5 -24 5 -22 0 -28 -9 -52 -82 -52 -159
-46 -157 -89 -29 -33 101 -39 111 -61 111 -13 0 -24 -6 -23 -12z"/>
<path d="M21880 10885 l0 -55 290 0 290 0 0 55 0 55 -290 0 -290 0 0 -55z"/>
<path d="M16119 10799 c-8 -5 -27 -9 -43 -9 -21 0 -27 -4 -22 -16 3 -9 6 -21
6 -28 0 -7 16 -13 37 -14 20 -2 40 -5 45 -8 13 -8 38 16 38 36 0 24 -42 51
-61 39z"/>
<path d="M16770 10616 c0 -8 5 -18 10 -21 6 -3 10 -1 10 4 0 6 12 11 28 12
l27 1 -25 8 c-38 12 -50 11 -50 -4z"/>
<path d="M16793 10564 c-7 -12 -8 -26 -3 -34 7 -12 10 -12 15 2 4 9 5 25 3 35
-4 17 -5 16 -15 -3z"/>
<path d="M18270 10416 c0 -12 -5 -27 -12 -34 -17 -17 6 -64 27 -56 8 3 15 13
15 20 0 8 11 19 25 24 43 16 26 64 -25 66 -25 1 -30 -2 -30 -20z"/>
<path d="M16970 10395 c0 -8 8 -15 18 -15 10 0 19 7 19 15 0 8 -9 15 -19 15
-10 0 -18 -7 -18 -15z"/>
<path d="M17140 10395 c0 -8 7 -15 15 -15 8 0 15 7 15 15 0 8 -7 15 -15 15 -8
0 -15 -7 -15 -15z"/>
<path d="M17310 10395 c0 -8 7 -15 15 -15 8 0 15 7 15 15 0 8 -7 15 -15 15 -8
0 -15 -7 -15 -15z"/>
<path d="M17470 10395 c0 -8 7 -15 15 -15 8 0 15 7 15 15 0 8 -7 15 -15 15 -8
0 -15 -7 -15 -15z"/>
<path d="M17640 10395 c0 -8 7 -15 15 -15 8 0 15 7 15 15 0 8 -7 15 -15 15 -8
0 -15 -7 -15 -15z"/>
<path d="M17810 10395 c0 -8 7 -15 15 -15 8 0 15 7 15 15 0 8 -7 15 -15 15 -8
0 -15 -7 -15 -15z"/>
<path d="M17970 10395 c0 -8 7 -15 15 -15 8 0 15 7 15 15 0 8 -7 15 -15 15 -8
0 -15 -7 -15 -15z"/>
<path d="M18140 10395 c0 -8 7 -15 15 -15 8 0 15 7 15 15 0 8 -7 15 -15 15 -8
0 -15 -7 -15 -15z"/>
<path d="M16951 9337 c-6 -8 -8 -16 -5 -19 2 -3 7 -18 10 -34 8 -47 12 -54 36
-54 15 1 32 14 49 39 l26 38 -22 21 c-26 25 -77 29 -94 9z"/>
<path d="M18768 9173 c-16 -2 -28 -10 -28 -17 0 -27 43 -116 56 -116 7 0 24
23 38 51 l25 52 -22 18 c-12 10 -26 18 -32 17 -5 0 -22 -3 -37 -5z"/>
<path d="M16675 8700 c-4 -6 -15 -8 -26 -5 -17 6 -17 3 -7 -26 8 -24 8 -33 -2
-39 -8 -5 -4 -15 15 -34 14 -14 24 -30 21 -35 -8 -13 31 -44 59 -47 23 -2 24
0 21 47 -2 27 -10 57 -19 67 -8 9 -18 32 -22 50 -6 31 -27 43 -40 22z"/>
<path d="M16510 8605 c0 -8 7 -15 15 -15 8 0 15 7 15 15 0 8 -7 15 -15 15 -8
0 -15 -7 -15 -15z"/>
<path d="M16357 8563 c-12 -11 -8 -23 8 -23 8 0 15 7 15 15 0 16 -12 20 -23 8z"/>
<path d="M16844 8562 c-6 -4 -11 -22 -11 -39 0 -29 3 -33 29 -33 15 0 28 -4
28 -10 0 -15 17 -12 39 6 18 16 19 50 1 39 -5 -3 -17 6 -28 20 -20 25 -38 31
-58 17z"/>
<path d="M15303 8548 c-6 -7 -8 -32 -5 -56 6 -60 35 -66 86 -18 30 29 34 37
22 42 -9 3 -16 12 -16 19 0 23 -71 33 -87 13z"/>
<path d="M15947 8482 c52 -48 63 -94 37 -149 -22 -44 -87 -83 -113 -66 -21 13
-73 -7 -66 -25 3 -8 5 -22 5 -32 0 -16 7 -18 45 -16 45 2 78 27 69 51 -2 5 9
17 25 27 71 40 82 150 20 214 -18 19 -40 34 -48 34 -10 0 0 -15 26 -38z"/>
<path d="M16200 8510 c-12 -7 -12 -12 -3 -21 10 -10 14 -9 19 5 8 22 2 27 -16
16z"/>
<path d="M16032 8448 c5 -15 28 -18 29 -3 0 6 -7 12 -17 13 -10 3 -15 -1 -12
-10z"/>
<path d="M16565 8450 c-4 -6 -3 -16 3 -22 6 -6 12 -6 17 2 4 6 3 16 -3 22 -6
6 -12 6 -17 -2z"/>
<path d="M16870 8415 c0 -8 7 -15 15 -15 8 0 15 7 15 15 0 8 -7 15 -15 15 -8
0 -15 -7 -15 -15z"/>
<path d="M16435 8331 c-7 -12 12 -24 25 -16 11 7 4 25 -10 25 -5 0 -11 -4 -15
-9z"/>
<path d="M15653 8292 c-4 -9 -11 -20 -17 -25 -7 -5 -4 -13 10 -25 12 -9 23
-24 26 -32 3 -9 17 -16 32 -18 20 -1 26 3 26 18 0 11 -5 20 -11 20 -7 0 -9 10
-7 25 5 25 -3 37 -35 48 -12 5 -20 1 -24 -11z"/>
<path d="M16880 8250 c0 -11 7 -20 15 -20 8 0 15 9 15 20 0 11 -7 20 -15 20
-8 0 -15 -9 -15 -20z"/>
<path d="M16325 8220 c-4 -6 -3 -16 3 -22 6 -6 12 -6 17 2 4 6 3 16 -3 22 -6
6 -12 6 -17 -2z"/>
<path d="M15605 8170 c-4 -6 -3 -16 3 -22 6 -6 12 -6 17 2 4 6 3 16 -3 22 -6
6 -12 6 -17 -2z"/>
<path d="M16195 8101 c-7 -12 12 -24 25 -16 11 7 4 25 -10 25 -5 0 -11 -4 -15
-9z"/>
<path d="M16890 8085 c0 -8 7 -15 15 -15 8 0 15 7 15 15 0 8 -7 15 -15 15 -8
0 -15 -7 -15 -15z"/>
<path d="M15897 8064 c-10 -11 4 -33 18 -28 8 3 11 12 8 20 -5 15 -16 18 -26
8z"/>
<path d="M15515 8030 c-4 -6 -3 -16 3 -22 6 -6 12 -6 17 2 4 6 3 16 -3 22 -6
6 -12 6 -17 -2z"/>
<path d="M16084 7986 c-8 -22 3 -33 18 -18 9 9 9 15 0 24 -9 9 -13 7 -18 -6z"/>
<path d="M16900 7915 c0 -8 7 -15 15 -15 8 0 15 7 15 15 0 8 -7 15 -15 15 -8
0 -15 -7 -15 -15z"/>
<path d="M15950 7886 c0 -26 14 -41 29 -32 13 8 0 56 -15 56 -8 0 -14 -10 -14
-24z"/>
<path d="M15421 7887 c-9 -12 -8 -16 3 -20 19 -7 32 11 19 24 -6 6 -14 5 -22
-4z"/>
<path d="M16910 7750 c0 -13 5 -18 15 -14 8 4 15 12 15 20 0 8 -7 14 -15 14
-8 0 -15 -9 -15 -20z"/>
<path d="M15331 7747 c-9 -12 -8 -16 3 -20 19 -7 32 11 19 24 -6 6 -14 5 -22
-4z"/>
<path d="M15835 7751 c-7 -12 12 -24 25 -16 11 7 4 25 -10 25 -5 0 -11 -4 -15
-9z"/>
<path d="M16002 7738 c6 -18 28 -21 28 -4 0 9 -7 16 -16 16 -9 0 -14 -5 -12
-12z"/>
<path d="M15715 7641 c-7 -12 12 -24 25 -16 11 7 4 25 -10 25 -5 0 -11 -4 -15
-9z"/>
<path d="M15236 7601 c-3 -5 0 -11 8 -14 15 -6 26 1 26 15 0 11 -27 10 -34 -1z"/>
<path d="M16922 7588 c5 -15 28 -18 29 -3 0 6 -7 12 -17 13 -10 3 -15 -1 -12
-10z"/>
<path d="M16060 7574 c0 -9 5 -14 12 -12 18 6 21 28 4 28 -9 0 -16 -7 -16 -16z"/>
<path d="M15595 7521 c-7 -12 12 -24 25 -16 11 7 4 25 -10 25 -5 0 -11 -4 -15
-9z"/>
<path d="M15147 7466 c-3 -8 0 -17 8 -20 14 -5 28 17 18 28 -10 10 -21 7 -26
-8z"/>
<path d="M16115 7430 c-8 -13 4 -32 16 -25 12 8 12 35 0 35 -6 0 -13 -4 -16
-10z"/>
<path d="M16953 7433 c-18 -7 -16 -33 2 -33 8 0 15 9 15 20 0 11 -1 20 -2 19
-2 0 -9 -3 -15 -6z"/>
<path d="M15475 7411 c-7 -12 12 -24 25 -16 11 7 4 25 -10 25 -5 0 -11 -4 -15
-9z"/>
<path d="M15056 7325 c-2 -7 1 -16 9 -19 7 -2 16 1 19 9 2 7 -1 16 -9 19 -7 2
-16 -1 -19 -9z"/>
<path d="M15355 7291 c-7 -12 12 -24 25 -16 11 7 4 25 -10 25 -5 0 -11 -4 -15
-9z"/>
<path d="M16170 7266 c0 -9 7 -16 16 -16 17 0 14 22 -4 28 -7 2 -12 -3 -12
-12z"/>
<path d="M16950 7255 c0 -8 7 -15 15 -15 8 0 15 7 15 15 0 8 -7 15 -15 15 -8
0 -15 -7 -15 -15z"/>
<path d="M14966 7184 c-3 -8 1 -14 9 -14 20 0 28 17 11 23 -8 3 -17 -1 -20 -9z"/>
<path d="M15235 7181 c-7 -12 12 -24 25 -16 11 7 4 25 -10 25 -5 0 -11 -4 -15
-9z"/>
<path d="M16222 7108 c6 -18 28 -21 28 -4 0 9 -7 16 -16 16 -9 0 -14 -5 -12
-12z"/>
<path d="M16960 7085 c0 -8 7 -15 15 -15 8 0 15 7 15 15 0 8 -7 15 -15 15 -8
0 -15 -7 -15 -15z"/>
<path d="M15115 7061 c-7 -12 12 -24 25 -16 11 7 4 25 -10 25 -5 0 -11 -4 -15
-9z"/>
<path d="M14876 7053 c-11 -11 -6 -23 8 -23 8 0 17 4 20 9 7 10 -19 23 -28 14z"/>
<path d="M16280 6960 c-12 -7 -12 -12 -2 -22 14 -14 35 1 24 19 -5 8 -13 9
-22 3z"/>
<path d="M14995 6950 c-8 -13 4 -32 16 -25 12 8 12 35 0 35 -6 0 -13 -4 -16
-10z"/>
<path d="M16977 6933 c-13 -12 -7 -33 8 -33 8 0 15 9 15 20 0 20 -11 26 -23
13z"/>
<path d="M14786 6913 c-11 -11 -6 -23 8 -23 8 0 17 4 20 9 7 10 -19 23 -28 14z"/>
<path d="M14875 6831 c-7 -12 12 -24 25 -16 11 7 4 25 -10 25 -5 0 -11 -4 -15
-9z"/>
<path d="M16334 6796 c-8 -22 3 -33 18 -18 9 9 9 15 0 24 -9 9 -13 7 -18 -6z"/>
<path d="M14696 6773 c-11 -11 -6 -23 9 -23 8 0 15 4 15 9 0 13 -16 22 -24 14z"/>
<path d="M16980 6755 c0 -8 7 -15 15 -15 8 0 15 7 15 15 0 8 -7 15 -15 15 -8
0 -15 -7 -15 -15z"/>
<path d="M14755 6720 c-4 -6 -3 -16 3 -22 6 -6 12 -6 17 2 4 6 3 16 -3 22 -6
6 -12 6 -17 -2z"/>
<path d="M16387 6643 c-12 -11 -8 -23 8 -23 8 0 15 7 15 15 0 16 -12 20 -23 8z"/>
<path d="M14600 6626 c0 -8 4 -17 9 -20 11 -7 33 18 24 27 -12 12 -33 7 -33
-7z"/>
<path d="M14454 6601 c-98 -45 -123 -159 -51 -235 63 -66 153 -67 217 -1 62
64 49 183 -26 227 -48 27 -94 30 -140 9z"/>
<path d="M14635 6601 c-7 -12 12 -24 25 -16 11 7 4 25 -10 25 -5 0 -11 -4 -15
-9z"/>
<path d="M16990 6586 c0 -10 9 -16 21 -16 24 0 21 23 -4 28 -10 2 -17 -3 -17
-12z"/>
<path d="M16432 6478 c3 -7 13 -15 22 -16 12 -3 17 1 14 10 -3 7 -13 15 -22
16 -12 3 -17 -1 -14 -10z"/>
<path d="M17000 6419 c0 -14 5 -19 17 -17 26 5 29 38 4 38 -15 0 -21 -6 -21
-21z"/>
<path d="M16490 6315 c0 -8 7 -15 15 -15 8 0 15 7 15 15 0 8 -7 15 -15 15 -8
0 -15 -7 -15 -15z"/>
<path d="M17016 6255 c4 -8 12 -15 20 -15 8 0 14 7 14 15 0 8 -9 15 -20 15
-13 0 -18 -5 -14 -15z"/>
<path d="M16553 6172 c-8 -5 -9 -13 -3 -22 7 -12 10 -12 16 3 8 21 3 29 -13
19z"/>
<path d="M17037 6103 c-13 -12 -7 -33 8 -33 8 0 15 9 15 20 0 20 -11 26 -23
13z"/>
<path d="M14247 6060 c3 -11 12 -20 19 -20 8 0 14 9 14 20 0 13 -7 20 -19 20
-14 0 -18 -5 -14 -20z"/>
<path d="M16596 6012 c-8 -13 11 -35 23 -28 16 10 14 36 -3 36 -8 0 -17 -4
-20 -8z"/>
<path d="M19725 6010 c-45 -10 -71 -27 -100 -63 -49 -66 -45 -145 12 -208 58
-64 136 -75 211 -29 92 56 98 209 10 272 -36 25 -91 37 -133 28z"/>
<path d="M17040 5920 c0 -13 5 -18 15 -14 8 4 15 12 15 20 0 8 -7 14 -15 14
-8 0 -15 -9 -15 -20z"/>
<path d="M14211 5916 c-14 -16 -7 -36 12 -36 7 0 21 -14 32 -32 10 -18 20 -27
23 -20 2 7 10 12 18 12 8 0 14 3 15 8 0 4 2 22 3 40 3 29 1 32 -23 32 -14 0
-35 3 -47 6 -12 3 -26 -1 -33 -10z"/>
<path d="M8240 5650 l0 -210 135 0 135 0 0 25 0 25 -105 0 -105 0 0 185 0 185
-30 0 -30 0 0 -210z"/>
<path d="M9520 5650 l0 -210 25 0 25 0 0 210 0 210 -25 0 -25 0 0 -210z"/>
<path d="M9820 5650 l0 -210 25 0 25 0 0 210 0 210 -25 0 -25 0 0 -210z"/>
<path d="M10910 5650 l0 -210 25 0 25 0 0 210 0 210 -25 0 -25 0 0 -210z"/>
<path d="M16650 5845 c0 -8 7 -15 15 -15 8 0 15 7 15 15 0 8 -7 15 -15 15 -8
0 -15 -7 -15 -15z"/>
<path d="M17050 5755 c0 -8 7 -15 15 -15 8 0 15 7 15 15 0 8 -7 15 -15 15 -8
0 -15 -7 -15 -15z"/>
<path d="M8614 5731 c-83 -51 -84 -214 -2 -275 56 -41 172 -17 202 42 40 78
27 171 -29 221 -30 26 -44 31 -88 31 -33 0 -63 -7 -83 -19z m137 -50 c24 -25
29 -37 29 -81 0 -80 -29 -119 -86 -120 -43 0 -73 27 -84 74 -12 53 -2 101 28
131 34 34 76 33 113 -4z"/>
<path d="M8948 5732 c-82 -50 -83 -226 -2 -279 36 -23 111 -22 148 2 24 16 56
67 56 90 0 14 -51 3 -57 -12 -20 -58 -85 -72 -128 -28 -42 41 -33 156 14 192
34 26 111 3 111 -33 0 -18 39 -18 46 0 24 62 -117 113 -188 68z"/>
<path d="M9245 5741 c-23 -10 -49 -38 -58 -63 -8 -24 34 -33 50 -10 26 37 35
42 71 42 46 0 69 -16 74 -50 3 -23 -1 -25 -81 -42 -91 -19 -117 -35 -126 -78
-19 -87 95 -138 184 -82 22 13 26 13 36 -2 7 -9 21 -16 31 -16 18 0 19 8 16
118 -3 131 -12 164 -48 181 -28 13 -119 14 -149 2z m139 -183 c-9 -47 -44 -80
-87 -81 -42 -1 -67 17 -67 49 0 28 10 34 75 50 81 20 85 19 79 -18z"/>
<path d="M9980 5712 c-46 -45 -60 -109 -40 -175 32 -107 169 -139 243 -57 33
37 34 47 6 55 -17 6 -27 0 -46 -24 -20 -25 -32 -31 -62 -31 -45 0 -91 39 -91
76 0 24 1 24 110 24 l110 0 0 35 c0 44 -21 86 -56 114 -20 16 -41 21 -82 21
-50 0 -58 -3 -92 -38z m141 -15 c18 -13 39 -50 39 -66 0 -7 -32 -11 -85 -11
-89 0 -95 3 -73 43 17 32 39 46 73 46 17 0 37 -5 46 -12z"/>
<path d="M10252 5738 c3 -7 29 -77 58 -156 51 -136 55 -143 79 -140 24 3 31
17 83 153 45 119 53 151 42 153 -30 7 -42 -8 -74 -100 -18 -51 -37 -104 -43
-118 -8 -22 -14 -11 -51 95 -40 112 -44 120 -71 123 -20 3 -26 0 -23 -10z"/>
<path d="M10610 5712 c-46 -45 -60 -109 -40 -175 32 -107 169 -139 243 -57 33
37 34 47 6 55 -17 6 -27 0 -46 -24 -20 -25 -32 -31 -62 -31 -45 0 -91 39 -91
76 0 24 1 24 110 24 l110 0 0 35 c0 44 -21 86 -56 114 -20 16 -41 21 -82 21
-50 0 -58 -3 -92 -38z m141 -15 c18 -13 39 -50 39 -66 0 -7 -32 -11 -85 -11
-89 0 -95 3 -73 43 17 32 39 46 73 46 17 0 37 -5 46 -12z"/>
<path d="M16706 5685 c4 -9 11 -14 16 -13 15 5 11 23 -6 26 -11 2 -14 -2 -10
-13z"/>
<path d="M17067 5603 c-13 -12 -7 -33 8 -33 8 0 15 9 15 20 0 20 -11 26 -23
13z"/>
<path d="M14290 5565 c0 -8 7 -15 15 -15 8 0 15 7 15 15 0 8 -7 15 -15 15 -8
0 -15 -7 -15 -15z"/>
<path d="M16760 5524 c0 -9 5 -14 12 -12 18 6 21 28 4 28 -9 0 -16 -7 -16 -16z"/>
<path d="M17070 5425 c0 -8 7 -15 15 -15 8 0 15 7 15 15 0 8 -7 15 -15 15 -8
0 -15 -7 -15 -15z"/>
<path d="M14300 5395 c0 -8 7 -15 15 -15 8 0 15 7 15 15 0 8 -7 15 -15 15 -8
0 -15 -7 -15 -15z"/>
<path d="M16817 5384 c-10 -11 4 -33 18 -28 8 3 11 12 8 20 -5 15 -16 18 -26
8z"/>
<path d="M17086 5256 c7 -19 38 -22 32 -3 -3 6 -12 13 -21 15 -12 2 -15 -1
-11 -12z"/>
<path d="M14288 5232 c-34 -21 -36 -47 -5 -57 12 -4 25 -7 30 -6 4 1 6 -2 6
-6 -4 -26 2 -34 24 -27 27 8 39 26 27 38 -5 5 -5 16 1 28 8 15 6 18 -11 18
-11 0 -20 7 -20 15 0 19 -17 18 -52 -3z"/>
<path d="M16860 5223 c1 -19 16 -31 29 -24 7 5 10 14 7 20 -8 12 -36 15 -36 4z"/>
<path d="M17100 5090 c0 -13 5 -18 15 -14 8 4 15 12 15 20 0 8 -7 14 -15 14
-8 0 -15 -9 -15 -20z"/>
<path d="M16933 5073 c-20 -8 -15 -33 6 -33 14 0 18 5 14 20 -3 11 -6 20 -7
19 0 0 -7 -3 -13 -6z"/>
<path d="M17110 4925 c0 -8 7 -15 15 -15 8 0 15 7 15 15 0 8 -7 15 -15 15 -8
0 -15 -7 -15 -15z"/>
<path d="M16983 4912 c-8 -5 -9 -13 -3 -22 6 -10 13 -11 19 -5 13 13 -1 36
-16 27z"/>
<path d="M17120 4755 c0 -8 7 -15 15 -15 8 0 15 7 15 15 0 8 -7 15 -15 15 -8
0 -15 -7 -15 -15z"/>
<path d="M17034 4746 c-8 -22 3 -33 18 -18 9 9 9 15 0 24 -9 9 -13 7 -18 -6z"/>
<path d="M17130 4588 c-1 -22 -1 -22 -15 -4 -15 20 -37 14 -29 -8 3 -8 -8 -23
-27 -36 -36 -26 -69 -90 -69 -135 0 -16 9 -48 19 -71 53 -116 225 -126 292
-17 31 50 32 125 2 174 -24 37 -87 79 -122 79 -14 0 -21 6 -21 20 0 11 -7 20
-15 20 -9 0 -15 -9 -15 -22z"/>
<path d="M20163 4455 l-22 -15 26 -46 c33 -60 58 -57 83 9 10 26 16 48 14 48
-2 1 -8 2 -13 3 -5 0 -13 4 -17 9 -12 12 -48 8 -71 -8z"/>
<path d="M17536 4235 c-26 -27 -29 -56 -9 -84 55 -74 160 1 107 77 -18 26 -74
30 -98 7z m75 -5 c30 -16 26 -77 -6 -92 -52 -24 -97 41 -58 84 18 20 36 23 64
8z"/>
<path d="M16472 2627 c-24 -7 -31 -14 -26 -26 3 -9 13 -35 21 -58 10 -30 21
-43 34 -43 10 0 19 6 19 13 0 7 11 28 25 47 27 37 31 50 14 50 -6 0 -17 7 -25
15 -17 17 -17 17 -62 2z"/>
</g>
</svg>
